<?xml version="1.0" standalone="no"?>
<!DOCTYPE svg PUBLIC "-//W3C//DTD SVG 20010904//EN"
 "http://www.w3.org/TR/2001/REC-SVG-20010904/DTD/svg10.dtd">
<svg version="1.0" xmlns="http://www.w3.org/2000/svg"
 width="512.000000pt" height="512.000000pt" viewBox="0 0 512.000000 512.000000"
 preserveAspectRatio="xMidYMid meet">

<g transform="translate(0.000000,512.000000) scale(0.100000,-0.100000)"
fill="#000000" stroke="none">
<path d="M1627 5106 c-123 -46 -186 -144 -173 -275 l6 -66 -366 -205 -365
-205 -252 -5 c-237 -5 -255 -6 -294 -27 -47 -25 -84 -71 -102 -122 -15 -46
-16 -1579 0 -1634 13 -49 63 -105 114 -128 38 -18 109 -19 1510 -19 1410 0
1472 1 1510 19 22 10 52 31 67 47 60 65 58 29 58 901 0 788 0 797 -21 840 -25
51 -76 96 -128 112 -24 7 -125 11 -268 11 l-230 0 -371 208 -370 207 5 72 c5
55 2 84 -11 117 -21 54 -78 115 -130 140 -51 24 -141 30 -189 12z m156 -176
c79 -88 -25 -211 -132 -155 -73 37 -60 157 19 188 32 13 85 -2 113 -33z m-182
-300 c58 -26 150 -26 206 0 l43 19 262 -147 262 -147 -338 -3 c-185 -1 -486
-1 -667 0 l-330 3 258 146 c142 81 259 147 259 148 1 1 21 -8 45 -19z m1552
-441 c12 -7 25 -17 29 -23 4 -6 8 -359 8 -783 0 -760 0 -773 -20 -793 -20 -20
-33 -20 -1465 -20 -1432 0 -1445 0 -1465 20 -20 20 -20 33 -20 794 l0 775 26
20 27 21 1429 0 c1058 0 1435 -3 1451 -11z"/>
<path d="M1913 3886 c-36 -16 -32 -7 -198 -551 -42 -137 -78 -255 -80 -262 -7
-21 35 -62 70 -69 62 -11 73 -1 102 97 l27 89 140 0 141 0 24 -85 c24 -88 38
-105 83 -105 35 0 88 36 88 61 0 11 -52 192 -117 402 -81 268 -123 389 -138
406 -28 29 -97 37 -142 17z m116 -392 l48 -169 -100 -3 c-55 -1 -101 -1 -104
1 -3 4 78 307 94 347 7 19 4 26 62 -176z"/>
<path d="M442 3874 l-22 -15 0 -410 c0 -396 1 -410 20 -429 19 -19 33 -20 239
-20 245 0 244 0 244 70 0 68 -5 70 -184 70 l-159 0 0 358 c0 335 -1 360 -18
375 -24 21 -90 22 -120 1z"/>
<path d="M1146 3870 c-58 -23 -100 -60 -129 -115 -20 -37 -22 -57 -25 -280 -3
-155 0 -258 8 -292 16 -73 57 -125 127 -159 50 -25 69 -29 148 -29 79 0 98 4
149 29 62 30 107 85 126 156 5 19 10 137 10 261 0 267 -8 310 -74 375 -71 72
-230 97 -340 54z m202 -136 c47 -33 52 -58 52 -289 0 -244 -6 -271 -65 -299
-41 -20 -76 -20 -120 -2 -62 26 -66 47 -63 312 l3 236 33 29 c27 24 41 29 85
29 31 0 61 -6 75 -16z"/>
<path d="M2416 3874 c-14 -13 -16 -66 -16 -429 l0 -414 22 -15 c34 -24 95 -18
128 11 3 3 7 116 10 251 l5 247 125 -235 c69 -129 135 -246 147 -260 17 -20
30 -25 71 -25 87 0 82 -28 82 441 l0 413 -22 15 c-12 9 -38 16 -58 16 -20 0
-46 -7 -58 -16 -22 -15 -22 -18 -22 -267 l0 -252 -130 250 c-71 138 -139 258
-151 268 -28 22 -111 23 -133 1z"/>
<path d="M3503 3775 c-41 -17 -73 -69 -73 -116 0 -19 36 -238 80 -485 65 -364
80 -468 80 -550 l0 -102 -93 -66 c-121 -86 -278 -226 -346 -309 l-55 -67 -30
21 c-67 45 -236 120 -331 146 -94 26 -111 28 -295 27 -167 0 -206 -3 -271 -21
-108 -30 -227 -79 -301 -123 l-63 -38 -27 19 c-55 40 -216 109 -311 134 -89
24 -99 25 -125 11 -31 -16 -42 -34 -42 -70 0 -40 24 -56 128 -86 352 -103 612
-357 703 -689 30 -109 37 -316 15 -435 -122 -646 -767 -993 -1373 -739 -250
105 -463 342 -546 609 -121 384 14 824 328 1074 130 102 279 167 460 200 77
14 103 23 117 40 25 31 22 67 -8 97 -24 24 -30 25 -87 19 -160 -16 -343 -83
-488 -178 -434 -283 -623 -829 -459 -1321 161 -480 645 -805 1154 -774 169 11
371 73 507 157 l51 31 121 -61 c67 -33 161 -71 208 -84 325 -92 674 -36 953
153 l60 40 31 -28 c48 -42 131 -86 220 -118 l80 -28 429 -3 c492 -4 516 -1
664 73 145 73 295 215 295 278 0 34 -41 77 -74 77 -11 0 -62 -40 -117 -93
-105 -99 -182 -145 -287 -172 -87 -22 -813 -22 -900 0 -63 16 -164 62 -204 93
l-23 19 68 85 c127 158 207 332 240 521 24 137 15 360 -19 490 -46 174 -133
332 -263 483 l-66 74 31 38 c75 93 235 236 370 330 l74 52 242 0 242 0 59 -38
c96 -63 254 -193 327 -271 207 -220 315 -445 354 -731 22 -170 14 -466 -17
-575 -34 -120 -36 -149 -11 -174 25 -25 68 -27 98 -6 27 19 57 111 80 240 23
133 13 501 -17 640 -47 217 -130 401 -257 568 -105 138 -299 318 -455 422
l-58 38 0 90 c0 69 19 200 81 546 44 251 81 475 81 499 1 51 -23 89 -73 114
-31 16 -72 18 -434 18 -321 -1 -406 -4 -432 -15z m783 -162 c-3 -16 -35 -199
-71 -408 -36 -209 -68 -388 -71 -397 -5 -16 -24 -18 -210 -18 -112 0 -204 2
-204 5 0 8 -139 795 -145 823 l-5 22 356 0 356 0 -6 -27z m-158 -1015 l3 -38
-195 0 -196 0 0 33 c0 19 3 37 7 41 4 3 90 5 192 4 l186 -3 3 -37z m-1428
-498 c368 -107 637 -394 712 -760 29 -137 21 -338 -16 -465 -64 -216 -179
-384 -355 -519 -227 -175 -533 -243 -813 -180 -76 17 -199 63 -256 97 l-33 20
48 51 c26 28 49 52 50 54 1 2 41 -12 90 -31 121 -48 189 -61 323 -60 397 3
735 279 814 665 22 108 21 263 -4 365 -90 377 -430 645 -815 644 -126 0 -221
-19 -325 -64 l-78 -34 -51 52 c-28 29 -51 55 -51 58 0 20 192 97 305 123 94
21 359 13 455 -16z m-100 -285 c36 -9 103 -34 150 -57 69 -34 102 -59 176
-133 73 -73 99 -106 133 -175 183 -372 4 -813 -388 -954 -140 -51 -294 -53
-441 -7 -102 32 -99 26 -45 133 l48 94 66 -23 66 -22 5 -57 c4 -47 10 -60 32
-77 22 -17 33 -18 60 -11 40 12 58 44 58 105 0 45 1 46 50 68 96 43 148 145
137 268 -13 133 -63 186 -260 269 -94 39 -124 65 -133 111 -20 104 98 162 231
113 33 -12 71 -22 84 -23 31 -3 66 42 58 75 -8 29 -68 65 -125 74 l-42 7 0 54
c0 44 -5 58 -25 78 -29 30 -64 32 -98 5 -22 -18 -27 -30 -29 -82 l-3 -61 -39
-14 c-22 -7 -48 -21 -58 -30 -21 -19 -20 -20 -42 37 -10 25 -33 73 -52 108
-19 34 -34 65 -34 67 0 10 66 38 133 55 89 23 237 25 327 5z m-188 -715 c51
-22 105 -52 120 -67 55 -53 60 -135 12 -192 -44 -53 -157 -60 -232 -16 -37 22
-36 17 -17 118 8 43 15 105 15 138 0 32 2 59 4 59 3 0 47 -18 98 -40z"/>
<path d="M1000 1966 c-173 -39 -312 -118 -436 -249 -193 -202 -271 -476 -213
-749 21 -99 52 -130 115 -114 41 11 54 55 37 124 -21 82 -20 252 1 332 52 196
188 364 362 449 195 95 412 95 614 -1 71 -34 100 -55 175 -132 73 -73 99 -107
132 -176 56 -115 77 -217 70 -339 -18 -336 -273 -614 -597 -650 -216 -24 -410
42 -570 195 -66 63 -82 74 -112 74 -44 0 -68 -25 -68 -73 0 -32 9 -46 63 -100
229 -232 563 -312 874 -207 276 92 488 340 549 639 26 130 16 288 -25 411 -98
291 -334 503 -633 565 -82 18 -261 18 -338 1z"/>
<path d="M1122 1727 c-15 -16 -22 -38 -24 -81 -3 -57 -4 -58 -39 -70 -94 -32
-149 -115 -149 -220 1 -122 48 -177 220 -251 59 -26 120 -59 134 -74 53 -55
55 -151 4 -199 -30 -27 -102 -43 -154 -33 -45 9 -100 38 -129 71 -38 42 -95
10 -95 -54 0 -44 65 -101 143 -124 l62 -20 3 -55 c2 -47 7 -60 29 -77 29 -23
42 -24 76 -9 31 14 47 48 47 103 0 41 2 44 41 62 62 27 87 51 114 105 53 104
40 241 -32 319 -33 37 -84 66 -231 131 -92 40 -123 100 -87 168 30 59 155 75
254 31 59 -26 77 -22 99 24 12 23 11 31 -2 51 -20 30 -61 52 -114 61 l-40 6
-4 61 c-4 47 -9 64 -27 78 -31 26 -73 24 -99 -4z"/>
</g>
</svg>
